<?xml version="1.0" standalone="no"?><svg xmlns="http://www.w3.org/2000/svg" viewBox="0 0 1440 320"><path fill="#a2d9ff" fill-opacity="1" d="M0,0L30,37.3C60,75,120,149,180,192C240,235,300,245,360,218.7C420,192,480,128,540,112C600,96,660,128,720,133.3C780,139,840,117,900,112C960,107,1020,117,1080,133.3C1140,149,1200,171,1260,197.3C1320,224,1380,256,1410,272L1440,288L1440,0L1410,0C1380,0,1320,0,1260,0C1200,0,1140,0,1080,0C1020,0,960,0,900,0C840,0,780,0,720,0C660,0,600,0,540,0C480,0,420,0,360,0C300,0,240,0,180,0C120,0,60,0,30,0L0,0Z"></path></svg>